<svg width="28" height="28" viewBox="0 0 28 28" fill="none" xmlns="http://www.w3.org/2000/svg">
<path d="M13.9997 2.3335C7.55967 2.3335 2.33301 7.56016 2.33301 14.0002C2.33301 20.4402 7.55967 25.6668 13.9997 25.6668C20.4397 25.6668 25.6663 20.4402 25.6663 14.0002C25.6663 7.56016 20.4397 2.3335 13.9997 2.3335ZM13.9997 7.00016C16.2513 7.00016 18.083 8.83183 18.083 11.0835C18.083 13.3352 16.2513 15.1668 13.9997 15.1668C11.748 15.1668 9.91634 13.3352 9.91634 11.0835C9.91634 8.83183 11.748 7.00016 13.9997 7.00016ZM13.9997 23.3335C11.6313 23.3335 8.83134 22.3768 6.83634 19.9735C8.87988 18.3702 11.4022 17.4988 13.9997 17.4988C16.5971 17.4988 19.1195 18.3702 21.163 19.9735C19.168 22.3768 16.368 23.3335 13.9997 23.3335Z" fill="white"/>
</svg>
