<?xml version="1.0" encoding="UTF-8"?>
<svg width="700pt" height="550pt" version="1.1" viewBox="0 0 700 550" fill="#F59256" xmlns="http://www.w3.org/2000/svg" xmlns:xlink="http://www.w3.org/1999/xlink">

 <g>
  <path d="m342.67 362.48v21.992c0 10.07-8.1914 18.266-18.766 18.266-10.07 0-18.266-8.1914-18.266-18.266h-13.906c0 17.742 14.43 32.168 32.672 32.168 10.496 0 19.738-5.125 25.613-12.918 5.9258 7.7969 15.289 12.918 26.078 12.918 17.742 0 32.168-14.43 32.168-32.168h-13.906c0 10.07-8.1914 18.266-18.766 18.266-10.07 0-18.266-8.1914-18.266-18.266v-21.992c20.07-2.2773 35.348-13.691 35.348-27.469 0-15.41-19.105-27.906-42.676-27.906-23.57 0-42.676 12.492-42.676 27.906 0.007813 13.777 15.285 25.191 35.348 27.469z"/>
  <path d="m285.82 233.05c-14.43 0-26.176 11.742-26.176 26.18s11.742 26.176 26.176 26.176c14.43 0 26.18-11.742 26.18-26.176 0-14.434-11.742-26.18-26.18-26.18z"/>
  <path d="m414.18 233.05c-14.43 0-26.176 11.742-26.176 26.18s11.742 26.176 26.176 26.176c14.43 0 26.18-11.742 26.18-26.176 0-14.434-11.75-26.18-26.18-26.18z"/>
  <path d="m591.57 361.41c5.7617 0 10.426-4.6641 10.426-10.426s-4.6641-10.426-10.426-10.426h-53.973c0.80469-5.0391 1.3789-10.152 1.7812-15.316l0.59375 0.41406 1.9727-23.633 48.551-28.035c4.9844-2.8789 6.6992-9.2578 3.8125-14.242-2.8789-4.9844-9.25-6.7031-14.242-3.8125l-36.012 20.793 18.105-217.16-150.81 71.07c-19.266-6.5898-39.883-10.219-61.355-10.219-21.465 0-42.09 3.6289-61.348 10.219l-150.81-71.074 18.105 217.16-36.016-20.797c-4.9844-2.8828-11.363-1.1719-14.242 3.8125-2.8828 4.9844-1.1719 11.363 3.8125 14.242l48.551 28.035 1.9727 23.633 0.59375-0.41406c0.39844 5.1641 0.97266 10.277 1.7812 15.316l-53.973-0.003906c-5.7617 0.011719-10.426 4.6758-10.426 10.438s4.6641 10.426 10.426 10.426h58.566c2.6562 9.5078 6.0273 18.723 10.062 27.57l-67.551 38.996c-4.9844 2.8789-6.6992 9.2578-3.8125 14.242 1.9336 3.3477 5.4336 5.2188 9.0391 5.2188 1.7695 0 3.5625-0.45312 5.2031-1.3984l66.793-38.566c33.18 55.625 93.934 92.969 163.27 92.969s130.09-37.352 163.28-92.973l66.793 38.566c1.6406 0.95312 3.4336 1.3984 5.2031 1.3984 3.6055 0 7.1055-1.8711 9.0391-5.2188 2.8828-4.9844 1.1719-11.363-3.8125-14.242l-67.551-38.992c4.0391-8.8555 7.4102-18.059 10.062-27.57zm-411.93-135.03-10.098-121.13 85.883 40.477c-32.547 18.766-59.047 46.867-75.785 80.652zm170.35 246.26c-89.438 0-162.2-72.766-162.2-162.21 0-89.438 72.766-162.2 162.2-162.2 89.441 0 162.21 72.766 162.21 162.2 0 89.445-72.77 162.21-162.21 162.21zm170.35-246.26c-16.738-33.785-43.238-61.891-75.785-80.652l85.887-40.477z"/>
 </g>
</svg>
