<svg width="164" height="164" viewBox="0 0 164 164" fill="none" xmlns="http://www.w3.org/2000/svg">
<rect width="164" height="164" rx="43" fill="#FD7A20"/>
<path d="M103.774 132.707C103.839 132.653 103.907 132.594 103.971 132.529C106.527 129.964 108.355 126.932 108.402 123.572C113.649 124.639 119.147 124.118 123.438 120.505C128.076 116.599 129.319 110.16 125.984 105.005C122.593 99.7592 116.142 97.8463 110.29 99.708C108.775 100.189 106.637 101.042 105.013 102.227C105.013 102.227 105.013 102.227 105.012 102.224C102.487 96.8934 99.9639 91.5624 97.4387 86.2348C94.713 79.786 91.9873 73.3373 89.2616 66.8885C86.7765 61.1148 83.5419 55.729 80.5099 50.2368C81.7173 49.4793 82.8714 48.6565 83.8541 47.5671C87.2396 43.8151 88.6111 38.4551 87.1873 33.5835C87.1599 33.4849 87.1163 33.4004 87.0783 33.3121C87.0587 33.2276 87.0421 33.1427 87.0103 33.0566C84.6117 26.5609 76.7281 25.5956 70.7546 27.2536C65.3207 28.7629 60.9591 32.5323 58.5663 37.5012C55.8732 35.7893 52.2707 35.6077 49.1175 35.946C44.1437 36.4824 39.2051 38.6648 36.974 43.3914C35.1196 47.3176 35.3739 52.0268 36.4732 56.1288C37.872 61.3516 41.5033 63.75 46.6472 64.8096C49.8569 65.4725 53.7714 65.5819 57.0629 64.5512C62.6453 79.1637 70.9575 92.4767 78.2011 106.29C79.1493 108.181 80.1006 110.073 81.0484 111.961C80.0568 112.884 79.2596 114.16 78.7555 115.165C77.6436 117.378 77.4129 119.846 77.7475 122.277C78.2999 126.277 80.3778 130.31 82.903 133.435C88.4695 140.332 98.0322 137.888 103.776 132.697L103.774 132.707Z" fill="white"/>
</svg>
