<svg width="1268" height="598" viewBox="0 0 1268 598" fill="none" xmlns="http://www.w3.org/2000/svg">
<g clip-path="url(#clip0_42_587)">
<path d="M920.38 242.833C934.422 248.685 947.684 255.707 960.557 263.899C1046.76 317.732 1101.37 422.669 1085.38 522.924C1069 624.74 961.337 769.467 854.849 790.532C820.133 797.554 784.637 787.802 750.701 777.269C693.751 759.715 640.312 731.237 584.143 714.853C562.299 708.612 538.505 707.051 517.441 715.633C480.775 730.457 471.804 762.445 456.201 794.823C438.648 831.493 409.003 862.311 373.117 881.425C299.394 920.435 204.218 902.101 135.957 859.97C34.5394 797.554 -1.73669 674.673 31.8091 563.105C40.3905 534.237 54.0428 505.76 76.6666 485.475C115.283 450.366 173.403 444.124 224.112 456.998C259.218 465.97 291.203 483.134 321.628 501.859C346.592 517.463 369.606 538.919 400.422 538.919C462.832 539.309 481.945 458.948 501.839 414.087C527.973 354.792 572.051 302.909 626.66 268.19C714.815 211.625 824.424 201.873 920.38 242.833Z" fill="url(#paint0_linear_42_587)"/>
<path d="M1236 606.5C1320 424 1221.17 290.823 1135 237C1048.84 183.178 821.172 127.578 637.001 257.5C582.417 292.212 528.189 355.006 502.067 414.289C482.183 459.141 463.079 539.485 400.697 539.095C369.896 539.095 346.893 517.644 321.941 502.043C291.53 483.322 259.561 466.162 224.471 457.191C173.786 444.321 115.693 450.561 77.0947 485.663C54.4814 505.944 40.8356 534.415 32.2582 563.277C-1.27185 674.822 34.9871 797.679 136.357 860.082C204.587 902.204 299.717 920.535 373.405 881.533C409.275 862.422 438.906 831.61 456.451 794.948C472.046 762.577 481.013 730.595 517.662 715.774C538.716 707.194 562.499 708.754 584.333 714.994C640.476 731.375 693.89 759.847 750.813 777.398C784.733 787.928 820.213 797.679 854.912 790.658C1170 800.5 1236 733.404 1236 606.5Z" fill="url(#paint1_radial_42_587)"/>
<path d="M1.77728 1044.1C-174.533 911.073 -71.5552 618.109 98.1237 528.386C161.704 494.837 235.817 481.964 307.199 491.326C371.56 499.909 451.914 521.754 517.835 496.788C567.763 477.673 590.777 430.471 616.912 387.56C689.464 268.19 872.405 245.954 963.291 359.083C996.836 400.823 1010.49 458.948 994.106 510.051C955.489 628.641 825.987 577.928 752.655 641.515C723.4 666.871 715.599 717.584 698.436 751.522C680.883 786.241 659.429 819.4 636.415 850.998C588.047 917.705 529.147 978.56 461.275 1025.76C325.922 1120.17 156.634 1148.25 13.4793 1052.68C9.57867 1049.95 5.67792 1047.22 1.77728 1044.1Z" fill="url(#paint2_linear_42_587)"/>
<path d="M1.77563 1044.1C-174.534 911.073 -71.5569 618.109 98.1219 528.386C161.703 494.838 235.816 481.964 307.198 491.327C371.559 499.909 451.913 521.755 517.834 496.788C567.763 477.673 590.777 430.471 616.911 387.561C689.463 268.19 969.817 151.679 1141.5 343C1223.5 441 1203.88 521.397 1187.5 572.5C1148.88 691.09 825.986 577.929 752.654 641.515C723.399 666.871 715.598 717.584 698.435 751.523C680.882 786.242 659.428 819.4 636.414 850.998C588.046 917.705 529.146 978.561 461.275 1025.76C325.922 1120.17 156.632 1148.25 13.4777 1052.68C9.57703 1049.95 5.67627 1047.22 1.77563 1044.1Z" fill="url(#paint3_radial_42_587)"/>
<path d="M432.609 398C415.212 398 401.109 383.897 401.109 366.5C401.109 349.103 415.212 335 432.609 335C450.006 335 464.109 349.103 464.109 366.5C464.109 383.897 450.006 398 432.609 398Z" fill="url(#paint4_linear_42_587)"/>
<path fill-rule="evenodd" clip-rule="evenodd" d="M753.214 0.57275C761.899 -1.70742 771.631 3.08267 776.544 10.2814C781.238 17.0423 782.515 26.5724 779.144 34.1452C777.914 36.8221 775.95 39.1899 774.055 41.4744C773.762 41.8279 773.471 42.1794 773.184 42.5297C770.655 45.7881 768.268 49.3943 766.796 53.155C765.217 57.1344 764.668 61.4571 764.13 65.6939C764.061 66.2425 763.991 66.7897 763.92 67.3345C763.646 69.1347 763.372 70.9349 763.123 72.737C763.143 74.8871 762.902 77.0365 762.344 79.1054C761.977 81.691 761.3 84.2348 759.66 86.2921C758.153 88.2743 755.945 88.9895 753.638 88.9556C752.955 89.0364 752.24 89.0079 751.499 88.8479C750.578 88.671 749.71 88.3675 748.885 87.9721C748.647 87.8806 748.412 87.7843 748.182 87.6839C744.452 86.0137 741.379 83.1975 739.02 79.8932C737.996 78.9965 736.965 78.1072 735.934 77.2179C735.525 76.8506 735.117 76.4802 734.707 76.1087C731.543 73.2403 728.314 70.3137 724.527 68.3174C720.963 66.4187 716.804 65.232 712.764 64.4012C712.319 64.3217 711.868 64.2444 711.416 64.1666C708.491 63.6636 705.459 63.1424 702.783 61.9091C695.298 58.3489 690.07 50.2792 689.238 42.0907C688.288 33.4276 692.565 23.4591 700.645 19.5429C708.962 15.508 719.18 18.0001 727.023 21.679C728.846 22.5067 730.658 23.4283 732.441 24.4374C733.088 22.6976 733.799 20.9979 734.567 19.3511C738.131 11.4563 744.272 2.91733 753.214 0.57275Z" fill="url(#paint5_linear_42_587)"/>
</g>
<defs>
<linearGradient id="paint0_linear_42_587" x1="-40.0437" y1="916.246" x2="1437.84" y2="109.172" gradientUnits="userSpaceOnUse">
<stop stop-color="#FF9370"/>
<stop offset="1" stop-color="#FFDF00"/>
</linearGradient>
<radialGradient id="paint1_radial_42_587" cx="0" cy="0" r="1" gradientUnits="userSpaceOnUse" gradientTransform="translate(657.946 170.157) rotate(76.9511) scale(1128.7 1318.22)">
<stop stop-color="#FEBB40"/>
<stop offset="0.5576" stop-color="#EC4C76"/>
<stop offset="0.9726" stop-color="#D60B52"/>
</radialGradient>
<linearGradient id="paint2_linear_42_587" x1="980.126" y1="-211.149" x2="31.9493" y2="1305.36" gradientUnits="userSpaceOnUse">
<stop stop-color="#FFDF00"/>
<stop offset="1" stop-color="#FF9370"/>
</linearGradient>
<radialGradient id="paint3_radial_42_587" cx="0" cy="0" r="1" gradientUnits="userSpaceOnUse" gradientTransform="translate(703.553 351.021) rotate(-122.48) scale(1284.19 2158.72)">
<stop stop-color="#FEBB40"/>
<stop offset="0.5576" stop-color="#EC4C76"/>
<stop offset="0.9726" stop-color="#D60B52"/>
</radialGradient>
<linearGradient id="paint4_linear_42_587" x1="359.022" y1="418.344" x2="509.222" y2="312.255" gradientUnits="userSpaceOnUse">
<stop stop-color="#EC4C76"/>
<stop offset="0.5183" stop-color="#FEBB40"/>
<stop offset="1" stop-color="white"/>
</linearGradient>
<linearGradient id="paint5_linear_42_587" x1="775.617" y1="39.8962" x2="634.887" y2="71.6347" gradientUnits="userSpaceOnUse">
<stop stop-color="#EC4C76"/>
<stop offset="0.5183" stop-color="#FEBB40"/>
<stop offset="1" stop-color="white"/>
</linearGradient>
<clipPath id="clip0_42_587">
<rect width="1268" height="598" fill="white"/>
</clipPath>
</defs>
</svg>
