<svg width="1396" height="538" viewBox="0 0 1396 538" fill="none" xmlns="http://www.w3.org/2000/svg">
<g clip-path="url(#clip0_69_660)">
<path d="M1211.8 43.2984C1227.23 49.6686 1241.8 57.3128 1255.95 66.2311C1350.68 124.837 1410.69 239.075 1393.12 348.218C1375.12 459.059 1256.81 616.614 1139.78 639.547C1101.63 647.191 1062.63 636.574 1025.33 625.108C962.751 605.997 904.025 574.996 842.299 557.159C818.295 550.364 792.147 548.666 768.999 558.009C728.706 574.146 718.847 608.97 701.701 644.218C682.411 684.138 649.834 717.688 610.398 738.497C529.382 780.965 424.791 761.005 349.776 715.14C238.326 647.191 198.462 513.417 235.326 391.959C244.756 360.533 259.759 329.532 284.621 307.448C327.058 269.227 390.927 262.432 446.652 276.447C485.231 286.214 520.38 304.9 553.815 325.285C581.249 342.272 606.54 365.629 640.403 365.629C708.988 366.054 729.992 278.57 751.853 229.732C780.573 165.181 829.011 108.699 889.022 70.9025C985.898 9.32416 1106.35 -1.2928 1211.8 43.2984Z" fill="url(#paint0_linear_69_660)"/>
<path d="M1211.83 43.5566C1227.26 49.9254 1241.83 57.5681 1255.96 66.4845C1350.65 125.078 1410.64 239.293 1393.07 348.414C1375.07 459.232 1256.82 616.756 1139.85 639.684C1101.72 647.326 1062.73 636.712 1025.46 625.248C962.902 606.141 904.204 575.146 842.507 557.313C818.514 550.519 792.378 548.821 769.241 558.162C728.967 574.297 719.112 609.113 701.974 644.354C682.694 684.266 650.131 717.809 610.714 738.614C529.736 781.073 425.193 761.117 350.214 715.261C238.816 647.326 198.97 513.58 235.817 392.147C245.243 360.727 260.239 329.732 285.089 307.653C327.506 269.439 391.346 262.646 447.044 276.658C485.605 286.423 520.738 305.105 554.158 325.486C581.579 342.469 606.858 365.822 640.705 365.822C709.258 366.246 730.252 278.781 752.103 229.952C780.81 165.414 829.225 108.944 889.208 71.155C986.039 9.58919 1106.43 -1.02561 1211.83 43.5566Z" fill="url(#paint1_radial_69_660)"/>
<path d="M202.321 915.588C8.56973 770.773 121.734 451.839 308.199 354.163C378.069 317.641 459.513 303.626 537.957 313.819C608.685 323.161 696.987 346.943 769.43 319.764C824.297 298.955 849.588 247.569 878.308 200.854C958.037 70.9025 1159.08 46.6958 1258.95 169.853C1295.82 215.293 1310.82 278.57 1292.82 334.203C1250.38 463.305 1108.07 408.097 1027.48 477.32C995.33 504.924 986.757 560.132 967.896 597.079C948.607 634.875 925.031 670.973 899.74 705.372C846.587 777.992 781.861 844.242 707.275 895.628C558.532 998.4 372.497 1028.98 215.181 924.931C210.894 921.958 206.608 918.985 202.321 915.588Z" fill="url(#paint2_linear_69_660)"/>
<path d="M202.321 915.588C8.56973 770.773 121.734 451.839 308.199 354.163C378.069 317.641 459.513 303.626 537.957 313.819C608.685 323.161 696.987 346.943 769.43 319.764C824.297 298.955 849.588 247.569 878.308 200.854C958.037 70.9025 1159.08 46.6958 1258.95 169.853C1295.82 215.293 1310.82 278.57 1292.82 334.203C1250.38 463.305 1108.07 408.097 1027.48 477.32C995.33 504.924 986.757 560.132 967.896 597.079C948.607 634.875 925.031 670.973 899.74 705.372C846.587 777.992 781.861 844.242 707.275 895.628C558.532 998.4 372.497 1028.98 215.181 924.931C210.894 921.958 206.608 918.985 202.321 915.588Z" fill="url(#paint3_radial_69_660)"/>
</g>
<g clip-path="url(#clip1_69_660)">
<path d="M1010.27 53.8335C1024.31 59.685 1037.58 66.7067 1050.45 74.8988C1136.65 128.732 1191.26 233.669 1175.27 333.925C1158.89 435.74 1051.23 580.467 944.741 601.532C910.025 608.554 874.529 598.802 840.594 588.269C783.644 570.715 730.205 542.237 674.035 525.853C652.192 519.612 628.398 518.051 607.334 526.633C570.668 541.457 561.696 573.445 546.094 605.824C528.541 642.493 498.896 673.311 463.009 692.426C389.287 731.435 294.111 713.101 225.849 670.97C124.432 608.554 88.1559 485.673 121.702 374.105C130.283 345.237 143.935 316.76 166.559 296.475C205.176 261.366 263.296 255.125 314.004 267.998C349.11 276.97 381.096 294.134 411.521 312.859C436.485 328.463 459.499 349.919 490.314 349.919C552.725 350.309 571.838 269.948 591.731 225.087C617.866 165.792 661.943 113.909 716.553 79.1899C804.707 22.6256 914.316 12.8731 1010.27 53.8335Z" fill="url(#paint4_linear_69_660)"/>
<path d="M1010.3 54.0706C1024.34 59.9209 1037.6 66.9412 1050.46 75.1316C1136.63 128.954 1191.21 233.87 1175.22 334.105C1158.85 435.9 1051.24 580.597 944.803 601.658C910.104 608.678 874.624 598.928 840.704 588.397C783.781 570.846 730.367 542.375 674.224 525.994C652.39 519.754 628.607 518.194 607.553 526.774C570.904 541.595 561.937 573.577 546.342 605.948C528.797 642.61 499.166 673.422 463.296 692.533C389.608 731.535 294.476 713.204 226.247 671.082C124.877 608.678 88.6177 485.822 122.148 374.277C130.725 345.415 144.371 316.944 166.984 296.663C205.583 261.561 263.676 255.321 314.361 268.191C349.45 277.162 381.421 294.323 411.832 313.044C436.784 328.644 459.787 350.095 490.588 350.095C552.97 350.485 572.074 270.141 591.958 225.289C618.08 166.006 662.137 114.134 716.721 79.4218C804.835 22.869 914.392 13.1185 1010.3 54.0706Z" fill="url(#paint5_radial_69_660)"/>
<path d="M91.666 855.097C-84.644 722.073 18.3335 429.109 188.012 339.386C251.593 305.837 325.706 292.964 397.088 302.326C461.449 310.909 541.802 332.754 607.724 307.788C657.652 288.673 680.666 241.471 706.8 198.56C779.353 79.1899 962.294 56.9542 1053.18 170.083C1086.72 211.824 1100.38 269.948 1083.99 321.051C1045.38 439.641 915.876 388.928 842.544 452.515C813.289 477.871 805.487 528.584 788.324 562.523C770.771 597.241 749.318 630.4 726.304 661.998C677.936 728.705 619.036 789.56 551.164 836.762C415.811 931.166 246.522 959.253 103.368 863.679C99.4673 860.948 95.5666 858.218 91.666 855.097Z" fill="url(#paint6_linear_69_660)"/>
<path d="M91.666 855.097C-84.644 722.073 18.3335 429.109 188.012 339.386C251.593 305.837 325.706 292.964 397.088 302.326C461.449 310.909 541.802 332.754 607.724 307.788C657.652 288.673 680.666 241.471 706.8 198.56C779.353 79.1899 962.294 56.9542 1053.18 170.083C1086.72 211.824 1100.38 269.948 1083.99 321.051C1045.38 439.641 915.876 388.928 842.544 452.515C813.289 477.871 805.487 528.584 788.324 562.523C770.771 597.241 749.318 630.4 726.304 661.998C677.936 728.705 619.036 789.56 551.164 836.762C415.811 931.166 246.522 959.253 103.368 863.679C99.4673 860.948 95.5666 858.218 91.666 855.097Z" fill="url(#paint7_radial_69_660)"/>
<path d="M557.5 239C540.103 239 526 224.897 526 207.5C526 190.103 540.103 176 557.5 176C574.897 176 589 190.103 589 207.5C589 224.897 574.897 239 557.5 239Z" fill="url(#paint8_linear_69_660)"/>
<path d="M423.5 146C403.342 146 387 129.658 387 109.5C387 89.3416 403.342 73 423.5 73C443.658 73 460 89.3416 460 109.5C460 129.658 443.658 146 423.5 146Z" fill="url(#paint9_linear_69_660)"/>
</g>
<defs>
<linearGradient id="paint0_linear_69_660" x1="156.365" y1="776.404" x2="1773.39" y2="-115" gradientUnits="userSpaceOnUse">
<stop stop-color="#FF9370"/>
<stop offset="1" stop-color="#FFDF00"/>
</linearGradient>
<radialGradient id="paint1_radial_69_660" cx="0" cy="0" r="1" gradientUnits="userSpaceOnUse" gradientTransform="translate(814.529 -99.209) rotate(79.6257) scale(1313.6 1235.52)">
<stop stop-color="#FEBB40"/>
<stop offset="0.5576" stop-color="#EC4C76"/>
<stop offset="0.9726" stop-color="#D60B52"/>
</radialGradient>
<linearGradient id="paint2_linear_69_660" x1="1277.45" y1="-450.926" x2="249.504" y2="1208.7" gradientUnits="userSpaceOnUse">
<stop stop-color="#FFDF00"/>
<stop offset="1" stop-color="#FF9370"/>
</linearGradient>
<radialGradient id="paint3_radial_69_660" cx="0" cy="0" r="1" gradientUnits="userSpaceOnUse" gradientTransform="translate(973.513 161.069) rotate(-122.724) scale(1401.84 2365.81)">
<stop stop-color="#FEBB40"/>
<stop offset="0.5576" stop-color="#EC4C76"/>
<stop offset="0.9726" stop-color="#D60B52"/>
</radialGradient>
<linearGradient id="paint4_linear_69_660" x1="49.8489" y1="727.246" x2="1527.73" y2="-79.8282" gradientUnits="userSpaceOnUse">
<stop stop-color="#FF9370"/>
<stop offset="1" stop-color="#FFDF00"/>
</linearGradient>
<radialGradient id="paint5_radial_69_660" cx="0" cy="0" r="1" gradientUnits="userSpaceOnUse" gradientTransform="translate(648.764 -77.0703) rotate(79.7207) scale(1206.28 1124.64)">
<stop stop-color="#FEBB40"/>
<stop offset="0.5576" stop-color="#EC4C76"/>
<stop offset="0.9726" stop-color="#D60B52"/>
</radialGradient>
<linearGradient id="paint6_linear_69_660" x1="1070.01" y1="-400.149" x2="121.838" y2="1116.36" gradientUnits="userSpaceOnUse">
<stop stop-color="#FFDF00"/>
<stop offset="1" stop-color="#FF9370"/>
</linearGradient>
<radialGradient id="paint7_radial_69_660" cx="0" cy="0" r="1" gradientUnits="userSpaceOnUse" gradientTransform="translate(793.436 162.015) rotate(-122.48) scale(1284.19 2158.72)">
<stop stop-color="#FEBB40"/>
<stop offset="0.5576" stop-color="#EC4C76"/>
<stop offset="0.9726" stop-color="#D60B52"/>
</radialGradient>
<linearGradient id="paint8_linear_69_660" x1="483.913" y1="259.344" x2="634.113" y2="153.255" gradientUnits="userSpaceOnUse">
<stop stop-color="#EC4C76"/>
<stop offset="0.5183" stop-color="#FEBB40"/>
<stop offset="1" stop-color="white"/>
</linearGradient>
<linearGradient id="paint9_linear_69_660" x1="338.232" y1="169.573" x2="512.273" y2="46.6448" gradientUnits="userSpaceOnUse">
<stop stop-color="#EC4C76"/>
<stop offset="0.703531" stop-color="#FEBB40"/>
<stop offset="1" stop-color="white"/>
</linearGradient>
<clipPath id="clip0_69_660">
<rect width="511" height="522" fill="white" transform="translate(885 16)"/>
</clipPath>
<clipPath id="clip1_69_660">
<rect width="1178" height="538" fill="white" transform="matrix(-1 0 0 1 1178 0)"/>
</clipPath>
</defs>
</svg>
